<?xml version="1.0" standalone="no"?>
<!DOCTYPE svg PUBLIC "-//W3C//DTD SVG 20010904//EN"
 "http://www.w3.org/TR/2001/REC-SVG-20010904/DTD/svg10.dtd">
<svg version="1.0" xmlns="http://www.w3.org/2000/svg"
 width="700.000000pt" height="700.000000pt" viewBox="0 0 700.000000 700.000000"
 preserveAspectRatio="xMidYMid meet">
<metadata>
Created by potrace 1.14, written by Peter Selinger 2001-2017
</metadata>
<g transform="translate(0.000000,700.000000) scale(0.100000,-0.100000)"
fill="#000000" stroke="none">
<path d="M0 3500 l0 -3500 3500 0 3500 0 0 3500 0 3500 -3500 0 -3500 0 0
-3500z m2217 1221 c670 -663 1219 -1208 1221 -1213 3 -6 -938 -946 -2161
-2158 l-287 -285 -228 228 -227 228 998 992 998 992 -803 792 c-442 436 -891
880 -998 988 l-195 195 225 225 c124 124 228 224 232 223 4 -2 556 -545 1225
-1207z m4243 -3396 l0 -255 -1510 0 -1510 0 0 248 c0 137 3 252 7 255 3 4 683
7 1510 7 l1503 0 0 -255z"/>
</g>
</svg>
